<svg aria-hidden="true" xmlns="http://www.w3.org/2000/svg" viewBox="84 127 262 430" height="32" width="20">
  <path d="M130.2944,130.2944L172.7208,172.7208L130.2944,215.1472L87.868,172.7208Z" fill="#2D6A5A"/>
  <path d="M172.7208,172.7208L215.1472,215.1472L172.7208,257.5736L130.2944,215.1472Z" fill="#5FB3A1"/>
  <path d="M130.2944,215.1472L172.7208,257.5736L130.2944,300L87.868,257.5736Z" fill="#2D6A5A"/>
  <path d="M172.7208,257.5736L215.1472,300L172.7208,342.4264L130.2944,300Z" fill="#3D8974"/>
  <path d="M130.2944,300L172.7208,342.4264L130.2944,384.8528L87.868,342.4264Z" fill="#2D6A5A"/>
  <path d="M172.7208,342.4264L215.1472,384.8528L172.7208,427.2792L130.2944,384.8528Z" fill="#3D8974"/>
  <path d="M130.2944,384.8528L172.7208,427.2792L130.2944,469.7056L87.868,427.2792Z" fill="#2D6A5A"/>
  <path d="M172.7208,427.2792L215.1472,469.7056L172.7208,512.132L130.2944,469.7056Z" fill="#5FB3A1"/>
  <path d="M215.1472,384.8528L257.5736,427.2792L215.1472,469.7056L172.7208,427.2792Z" fill="#5FB3A1"/>
  <path d="M257.5736,342.4264L300,384.8528L257.5736,427.2792L215.1472,384.8528Z" fill="#2D6A5A"/>
  <path d="M215.1472,300L257.5736,342.4264L215.1472,384.8528L172.7208,342.4264Z" fill="#3D8974"/>
  <path d="M257.5736,257.5736L300,300L257.5736,342.4264L215.1472,300Z" fill="#2D6A5A"/>
  <path d="M215.1472,215.1472L257.5736,257.5736L215.1472,300L172.7208,257.5736Z" fill="#5FB3A1"/>
  <path d="M300,300L342.4264,342.4264L300,384.8528L257.5736,342.4264Z" fill="#2D6A5A"/>
  <path d="M130.2944,469.7056L172.7208,512.132L130.2944,554.5584L87.868,512.132Z" fill="#2D6A5A"/>
</svg>
